<svg xmlns="http://www.w3.org/2000/svg" viewBox="-44 -256 157 320" width="157" height="320">
<rect x="-44" y="-256" width="157" height="320" fill="#0b0e15"/>
<polygon points="-15.0,-7.4 -15.0,7.4 -27.7,14.7 -40.5,7.4 -40.5,-7.4 -27.7,-14.7" fill="#1b2233"/>
<polygon points="-1.1,16.6 -1.1,31.4 -13.9,38.7 -26.6,31.4 -26.6,16.6 -13.9,9.3" fill="#1b2233"/>
<polygon points="12.7,40.6 12.7,55.4 0.0,62.7 -12.7,55.4 -12.7,40.6 -0.0,33.3" fill="#1b2233"/>
<polygon points="-1.1,-31.4 -1.1,-16.6 -13.9,-9.3 -26.6,-16.6 -26.6,-31.4 -13.9,-38.7" fill="#1b2233"/>
<polygon points="12.7,-7.4 12.7,7.4 0.0,14.7 -12.7,7.4 -12.7,-7.4 -0.0,-14.7" fill="#f6d04a"/>
<polygon points="26.6,16.6 26.6,31.4 13.9,38.7 1.1,31.4 1.1,16.6 13.9,9.3" fill="#f6d04a"/>
<polygon points="40.5,40.6 40.5,55.4 27.7,62.7 15.0,55.4 15.0,40.6 27.7,33.3" fill="#1b2233"/>
<polygon points="26.6,-31.4 26.6,-16.6 13.9,-9.3 1.1,-16.6 1.1,-31.4 13.9,-38.7" fill="#1b2233"/>
<polygon points="40.5,-7.4 40.5,7.4 27.7,14.7 15.0,7.4 15.0,-7.4 27.7,-14.7" fill="#1b2233"/>
<polygon points="54.3,16.6 54.3,31.4 41.6,38.7 28.8,31.4 28.8,16.6 41.6,9.3" fill="#1b2233"/>
<polygon points="-1.1,-127.4 -1.1,-112.6 -13.9,-105.3 -26.6,-112.6 -26.6,-127.4 -13.9,-134.7" fill="#1b2233"/>
<polygon points="12.7,-103.4 12.7,-88.6 0.0,-81.3 -12.7,-88.6 -12.7,-103.4 -0.0,-110.7" fill="#1b2233"/>
<polygon points="12.7,-151.4 12.7,-136.6 0.0,-129.3 -12.7,-136.6 -12.7,-151.4 -0.0,-158.7" fill="#1b2233"/>
<polygon points="26.6,-127.4 26.6,-112.6 13.9,-105.3 1.1,-112.6 1.1,-127.4 13.9,-134.7" fill="#f6d04a"/>
<polygon points="40.5,-103.4 40.5,-88.6 27.7,-81.3 15.0,-88.6 15.0,-103.4 27.7,-110.7" fill="#1b2233"/>
<polygon points="54.3,-79.4 54.3,-64.6 41.6,-57.3 28.8,-64.6 28.8,-79.4 41.6,-86.7" fill="#1b2233"/>
<polygon points="40.5,-151.4 40.5,-136.6 27.7,-129.3 15.0,-136.6 15.0,-151.4 27.7,-158.7" fill="#1b2233"/>
<polygon points="54.3,-127.4 54.3,-112.6 41.6,-105.3 28.8,-112.6 28.8,-127.4 41.6,-134.7" fill="#1b2233"/>
<polygon points="68.2,-103.4 68.2,-88.6 55.4,-81.3 42.7,-88.6 42.7,-103.4 55.4,-110.7" fill="#f6d04a"/>
<polygon points="82.0,-79.4 82.0,-64.6 69.3,-57.3 56.5,-64.6 56.5,-79.4 69.3,-86.7" fill="#1b2233"/>
<polygon points="82.0,-127.4 82.0,-112.6 69.3,-105.3 56.5,-112.6 56.5,-127.4 69.3,-134.7" fill="#1b2233"/>
<polygon points="95.9,-103.4 95.9,-88.6 83.1,-81.3 70.4,-88.6 70.4,-103.4 83.1,-110.7" fill="#1b2233"/>
<polygon points="54.3,-223.4 54.3,-208.6 41.6,-201.3 28.8,-208.6 28.8,-223.4 41.6,-230.7" fill="#1b2233"/>
<polygon points="68.2,-199.4 68.2,-184.6 55.4,-177.3 42.7,-184.6 42.7,-199.4 55.4,-206.7" fill="#1b2233"/>
<polygon points="68.2,-247.4 68.2,-232.6 55.4,-225.3 42.7,-232.6 42.7,-247.4 55.4,-254.7" fill="#1b2233"/>
<polygon points="82.0,-223.4 82.0,-208.6 69.3,-201.3 56.5,-208.6 56.5,-223.4 69.3,-230.7" fill="#f6d04a"/>
<polygon points="95.9,-199.4 95.9,-184.6 83.1,-177.3 70.4,-184.6 70.4,-199.4 83.1,-206.7" fill="#1b2233"/>
<polygon points="95.9,-247.4 95.9,-232.6 83.1,-225.3 70.4,-232.6 70.4,-247.4 83.1,-254.7" fill="#1b2233"/>
<polygon points="109.7,-223.4 109.7,-208.6 97.0,-201.3 84.2,-208.6 84.2,-223.4 97.0,-230.7" fill="#1b2233"/>
<polygon points="-19.1,-53.0 -19.1,-43.0 -27.7,-38.1 -36.3,-43.0 -36.3,-53.0 -27.7,-57.9" fill="none" stroke="#f6d04a" stroke-width="2.5"/>
<polygon points="-5.3,-29.0 -5.3,-19.0 -13.9,-14.1 -22.4,-19.0 -22.4,-29.0 -13.9,-33.9" fill="none" stroke="#f6d04a" stroke-width="2.5"/>
</svg>