<svg xmlns="http://www.w3.org/2000/svg" viewBox="-139 -193 346 314" width="346" height="314">
<rect x="-139" y="-193" width="346" height="314" fill="#0b0e15"/>
<polygon points="-112.0,64.6 -112.0,79.4 -124.7,86.7 -137.5,79.4 -137.5,64.6 -124.7,57.3" fill="#1b2233"/>
<polygon points="-98.1,88.6 -98.1,103.4 -110.9,110.7 -123.6,103.4 -123.6,88.6 -110.9,81.3" fill="#1b2233"/>
<polygon points="-112.0,16.6 -112.0,31.4 -124.7,38.7 -137.5,31.4 -137.5,16.6 -124.7,9.3" fill="#1b2233"/>
<polygon points="-98.1,40.6 -98.1,55.4 -110.9,62.7 -123.6,55.4 -123.6,40.6 -110.9,33.3" fill="#1b2233"/>
<polygon points="-84.2,64.6 -84.2,79.4 -97.0,86.7 -109.7,79.4 -109.7,64.6 -97.0,57.3" fill="#1b2233"/>
<polygon points="-70.4,88.6 -70.4,103.4 -83.1,110.7 -95.9,103.4 -95.9,88.6 -83.1,81.3" fill="#1b2233"/>
<polygon points="-112.0,-31.4 -112.0,-16.6 -124.7,-9.3 -137.5,-16.6 -137.5,-31.4 -124.7,-38.7" fill="#1b2233"/>
<polygon points="-98.1,-7.4 -98.1,7.4 -110.9,14.7 -123.6,7.4 -123.6,-7.4 -110.9,-14.7" fill="#1b2233"/>
<polygon points="-84.2,16.6 -84.2,31.4 -97.0,38.7 -109.7,31.4 -109.7,16.6 -97.0,9.3" fill="#1b2233"/>
<polygon points="-70.4,40.6 -70.4,55.4 -83.1,62.7 -95.9,55.4 -95.9,40.6 -83.1,33.3" fill="#1b2233"/>
<polygon points="-56.5,64.6 -56.5,79.4 -69.3,86.7 -82.0,79.4 -82.0,64.6 -69.3,57.3" fill="#1b2233"/>
<polygon points="-42.7,88.6 -42.7,103.4 -55.4,110.7 -68.2,103.4 -68.2,88.6 -55.4,81.3" fill="#1b2233"/>
<polygon points="-112.0,-79.4 -112.0,-64.6 -124.7,-57.3 -137.5,-64.6 -137.5,-79.4 -124.7,-86.7" fill="#1b2233"/>
<polygon points="-98.1,-55.4 -98.1,-40.6 -110.9,-33.3 -123.6,-40.6 -123.6,-55.4 -110.9,-62.7" fill="#1b2233"/>
<polygon points="-84.2,-31.4 -84.2,-16.6 -97.0,-9.3 -109.7,-16.6 -109.7,-31.4 -97.0,-38.7" fill="#1b2233"/>
<polygon points="-70.4,-7.4 -70.4,7.4 -83.1,14.7 -95.9,7.4 -95.9,-7.4 -83.1,-14.7" fill="#1b2233"/>
<polygon points="-56.5,16.6 -56.5,31.4 -69.3,38.7 -82.0,31.4 -82.0,16.6 -69.3,9.3" fill="#1b2233"/>
<polygon points="-42.7,40.6 -42.7,55.4 -55.4,62.7 -68.2,55.4 -68.2,40.6 -55.4,33.3" fill="#1b2233"/>
<polygon points="-28.8,64.6 -28.8,79.4 -41.6,86.7 -54.3,79.4 -54.3,64.6 -41.6,57.3" fill="#1b2233"/>
<polygon points="-15.0,88.6 -15.0,103.4 -27.7,110.7 -40.5,103.4 -40.5,88.6 -27.7,81.3" fill="#1b2233"/>
<polygon points="-112.0,-127.4 -112.0,-112.6 -124.7,-105.3 -137.5,-112.6 -137.5,-127.4 -124.7,-134.7" fill="#1b2233"/>
<polygon points="-98.1,-103.4 -98.1,-88.6 -110.9,-81.3 -123.6,-88.6 -123.6,-103.4 -110.9,-110.7" fill="#1b2233"/>
<polygon points="-84.2,-79.4 -84.2,-64.6 -97.0,-57.3 -109.7,-64.6 -109.7,-79.4 -97.0,-86.7" fill="#1b2233"/>
<polygon points="-70.4,-55.4 -70.4,-40.6 -83.1,-33.3 -95.9,-40.6 -95.9,-55.4 -83.1,-62.7" fill="#1b2233"/>
<polygon points="-56.5,-31.4 -56.5,-16.6 -69.3,-9.3 -82.0,-16.6 -82.0,-31.4 -69.3,-38.7" fill="#1b2233"/>
<polygon points="-42.7,-7.4 -42.7,7.4 -55.4,14.7 -68.2,7.4 -68.2,-7.4 -55.4,-14.7" fill="#1b2233"/>
<polygon points="-28.8,16.6 -28.8,31.4 -41.6,38.7 -54.3,31.4 -54.3,16.6 -41.6,9.3" fill="#87d1f7"/>
<polygon points="-15.0,40.6 -15.0,55.4 -27.7,62.7 -40.5,55.4 -40.5,40.6 -27.7,33.3" fill="#1b2233"/>
<polygon points="-1.1,64.6 -1.1,79.4 -13.9,86.7 -26.6,79.4 -26.6,64.6 -13.9,57.3" fill="#1b2233"/>
<polygon points="12.7,88.6 12.7,103.4 0.0,110.7 -12.7,103.4 -12.7,88.6 -0.0,81.3" fill="#1b2233"/>
<polygon points="-112.0,-175.4 -112.0,-160.6 -124.7,-153.3 -137.5,-160.6 -137.5,-175.4 -124.7,-182.7" fill="#1b2233"/>
<polygon points="-98.1,-151.4 -98.1,-136.6 -110.9,-129.3 -123.6,-136.6 -123.6,-151.4 -110.9,-158.7" fill="#1b2233"/>
<polygon points="-84.2,-127.4 -84.2,-112.6 -97.0,-105.3 -109.7,-112.6 -109.7,-127.4 -97.0,-134.7" fill="#1b2233"/>
<polygon points="-70.4,-103.4 -70.4,-88.6 -83.1,-81.3 -95.9,-88.6 -95.9,-103.4 -83.1,-110.7" fill="#1b2233"/>
<polygon points="-56.5,-79.4 -56.5,-64.6 -69.3,-57.3 -82.0,-64.6 -82.0,-79.4 -69.3,-86.7" fill="#1b2233"/>
<polygon points="-42.7,-55.4 -42.7,-40.6 -55.4,-33.3 -68.2,-40.6 -68.2,-55.4 -55.4,-62.7" fill="#1b2233"/>
<polygon points="-28.8,-31.4 -28.8,-16.6 -41.6,-9.3 -54.3,-16.6 -54.3,-31.4 -41.6,-38.7" fill="#1b2233"/>
<polygon points="-15.0,-7.4 -15.0,7.4 -27.7,14.7 -40.5,7.4 -40.5,-7.4 -27.7,-14.7" fill="#87d1f7"/>
<polygon points="-1.1,16.6 -1.1,31.4 -13.9,38.7 -26.6,31.4 -26.6,16.6 -13.9,9.3" fill="#1b2233"/>
<polygon points="12.7,40.6 12.7,55.4 0.0,62.7 -12.7,55.4 -12.7,40.6 -0.0,33.3" fill="#1b2233"/>
<polygon points="26.6,64.6 26.6,79.4 13.9,86.7 1.1,79.4 1.1,64.6 13.9,57.3" fill="#1b2233"/>
<polygon points="40.5,88.6 40.5,103.4 27.7,110.7 15.0,103.4 15.0,88.6 27.7,81.3" fill="#1b2233"/>
<polygon points="-84.2,-175.4 -84.2,-160.6 -97.0,-153.3 -109.7,-160.6 -109.7,-175.4 -97.0,-182.7" fill="#1b2233"/>
<polygon points="-70.4,-151.4 -70.4,-136.6 -83.1,-129.3 -95.9,-136.6 -95.9,-151.4 -83.1,-158.7" fill="#1b2233"/>
<polygon points="-56.5,-127.4 -56.5,-112.6 -69.3,-105.3 -82.0,-112.6 -82.0,-127.4 -69.3,-134.7" fill="#1b2233"/>
<polygon points="-42.7,-103.4 -42.7,-88.6 -55.4,-81.3 -68.2,-88.6 -68.2,-103.4 -55.4,-110.7" fill="#1b2233"/>
<polygon points="-28.8,-79.4 -28.8,-64.6 -41.6,-57.3 -54.3,-64.6 -54.3,-79.4 -41.6,-86.7" fill="#1b2233"/>
<polygon points="-15.0,-55.4 -15.0,-40.6 -27.7,-33.3 -40.5,-40.6 -40.5,-55.4 -27.7,-62.7" fill="#1b2233"/>
<polygon points="-1.1,-31.4 -1.1,-16.6 -13.9,-9.3 -26.6,-16.6 -26.6,-31.4 -13.9,-38.7" fill="#1b2233"/>
<polygon points="12.7,-7.4 12.7,7.4 0.0,14.7 -12.7,7.4 -12.7,-7.4 -0.0,-14.7" fill="#f6d04a"/>
<polygon points="26.6,16.6 26.6,31.4 13.9,38.7 1.1,31.4 1.1,16.6 13.9,9.3" fill="#f6d04a"/>
<polygon points="40.5,40.6 40.5,55.4 27.7,62.7 15.0,55.4 15.0,40.6 27.7,33.3" fill="#1b2233"/>
<polygon points="54.3,64.6 54.3,79.4 41.6,86.7 28.8,79.4 28.8,64.6 41.6,57.3" fill="#1b2233"/>
<polygon points="68.2,88.6 68.2,103.4 55.4,110.7 42.7,103.4 42.7,88.6 55.4,81.3" fill="#1b2233"/>
<polygon points="-56.5,-175.4 -56.5,-160.6 -69.3,-153.3 -82.0,-160.6 -82.0,-175.4 -69.3,-182.7" fill="#1b2233"/>
<polygon points="-42.7,-151.4 -42.7,-136.6 -55.4,-129.3 -68.2,-136.6 -68.2,-151.4 -55.4,-158.7" fill="#1b2233"/>
<polygon points="-28.8,-127.4 -28.8,-112.6 -41.6,-105.3 -54.3,-112.6 -54.3,-127.4 -41.6,-134.7" fill="#1b2233"/>
<polygon points="-15.0,-103.4 -15.0,-88.6 -27.7,-81.3 -40.5,-88.6 -40.5,-103.4 -27.7,-110.7" fill="#1b2233"/>
<polygon points="-1.1,-79.4 -1.1,-64.6 -13.9,-57.3 -26.6,-64.6 -26.6,-79.4 -13.9,-86.7" fill="#1b2233"/>
<polygon points="12.7,-55.4 12.7,-40.6 0.0,-33.3 -12.7,-40.6 -12.7,-55.4 -0.0,-62.7" fill="#1b2233"/>
<polygon points="26.6,-31.4 26.6,-16.6 13.9,-9.3 1.1,-16.6 1.1,-31.4 13.9,-38.7" fill="#1b2233"/>
<polygon points="40.5,-7.4 40.5,7.4 27.7,14.7 15.0,7.4 15.0,-7.4 27.7,-14.7" fill="#1b2233"/>
<polygon points="54.3,16.6 54.3,31.4 41.6,38.7 28.8,31.4 28.8,16.6 41.6,9.3" fill="#1b2233"/>
<polygon points="68.2,40.6 68.2,55.4 55.4,62.7 42.7,55.4 42.7,40.6 55.4,33.3" fill="#1b2233"/>
<polygon points="82.0,64.6 82.0,79.4 69.3,86.7 56.5,79.4 56.5,64.6 69.3,57.3" fill="#1b2233"/>
<polygon points="95.9,88.6 95.9,103.4 83.1,110.7 70.4,103.4 70.4,88.6 83.1,81.3" fill="#1b2233"/>
<polygon points="-28.8,-175.4 -28.8,-160.6 -41.6,-153.3 -54.3,-160.6 -54.3,-175.4 -41.6,-182.7" fill="#1b2233"/>
<polygon points="-15.0,-151.4 -15.0,-136.6 -27.7,-129.3 -40.5,-136.6 -40.5,-151.4 -27.7,-158.7" fill="#1b2233"/>
<polygon points="-1.1,-127.4 -1.1,-112.6 -13.9,-105.3 -26.6,-112.6 -26.6,-127.4 -13.9,-134.7" fill="#1b2233"/>
<polygon points="12.7,-103.4 12.7,-88.6 0.0,-81.3 -12.7,-88.6 -12.7,-103.4 -0.0,-110.7" fill="#1b2233"/>
<polygon points="26.6,-79.4 26.6,-64.6 13.9,-57.3 1.1,-64.6 1.1,-79.4 13.9,-86.7" fill="#1b2233"/>
<polygon points="40.5,-55.4 40.5,-40.6 27.7,-33.3 15.0,-40.6 15.0,-55.4 27.7,-62.7" fill="#1b2233"/>
<polygon points="54.3,-31.4 54.3,-16.6 41.6,-9.3 28.8,-16.6 28.8,-31.4 41.6,-38.7" fill="#1b2233"/>
<polygon points="68.2,-7.4 68.2,7.4 55.4,14.7 42.7,7.4 42.7,-7.4 55.4,-14.7" fill="#1b2233"/>
<polygon points="82.0,16.6 82.0,31.4 69.3,38.7 56.5,31.4 56.5,16.6 69.3,9.3" fill="#1b2233"/>
<polygon points="95.9,40.6 95.9,55.4 83.1,62.7 70.4,55.4 70.4,40.6 83.1,33.3" fill="#1b2233"/>
<polygon points="109.7,64.6 109.7,79.4 97.0,86.7 84.2,79.4 84.2,64.6 97.0,57.3" fill="#1b2233"/>
<polygon points="123.6,88.6 123.6,103.4 110.9,110.7 98.1,103.4 98.1,88.6 110.9,81.3" fill="#1b2233"/>
<polygon points="-1.1,-175.4 -1.1,-160.6 -13.9,-153.3 -26.6,-160.6 -26.6,-175.4 -13.9,-182.7" fill="#1b2233"/>
<polygon points="12.7,-151.4 12.7,-136.6 0.0,-129.3 -12.7,-136.6 -12.7,-151.4 -0.0,-158.7" fill="#1b2233"/>
<polygon points="26.6,-127.4 26.6,-112.6 13.9,-105.3 1.1,-112.6 1.1,-127.4 13.9,-134.7" fill="#1b2233"/>
<polygon points="40.5,-103.4 40.5,-88.6 27.7,-81.3 15.0,-88.6 15.0,-103.4 27.7,-110.7" fill="#1b2233"/>
<polygon points="54.3,-79.4 54.3,-64.6 41.6,-57.3 28.8,-64.6 28.8,-79.4 41.6,-86.7" fill="#1b2233"/>
<polygon points="68.2,-55.4 68.2,-40.6 55.4,-33.3 42.7,-40.6 42.7,-55.4 55.4,-62.7" fill="#1b2233"/>
<polygon points="82.0,-31.4 82.0,-16.6 69.3,-9.3 56.5,-16.6 56.5,-31.4 69.3,-38.7" fill="#1b2233"/>
<polygon points="95.9,-7.4 95.9,7.4 83.1,14.7 70.4,7.4 70.4,-7.4 83.1,-14.7" fill="#1b2233"/>
<polygon points="109.7,16.6 109.7,31.4 97.0,38.7 84.2,31.4 84.2,16.6 97.0,9.3" fill="#1b2233"/>
<polygon points="123.6,40.6 123.6,55.4 110.9,62.7 98.1,55.4 98.1,40.6 110.9,33.3" fill="#1b2233"/>
<polygon points="137.5,64.6 137.5,79.4 124.7,86.7 112.0,79.4 112.0,64.6 124.7,57.3" fill="#1b2233"/>
<polygon points="151.3,88.6 151.3,103.4 138.6,110.7 125.8,103.4 125.8,88.6 138.6,81.3" fill="#1b2233"/>
<polygon points="26.6,-175.4 26.6,-160.6 13.9,-153.3 1.1,-160.6 1.1,-175.4 13.9,-182.7" fill="#1b2233"/>
<polygon points="40.5,-151.4 40.5,-136.6 27.7,-129.3 15.0,-136.6 15.0,-151.4 27.7,-158.7" fill="#1b2233"/>
<polygon points="54.3,-127.4 54.3,-112.6 41.6,-105.3 28.8,-112.6 28.8,-127.4 41.6,-134.7" fill="#1b2233"/>
<polygon points="68.2,-103.4 68.2,-88.6 55.4,-81.3 42.7,-88.6 42.7,-103.4 55.4,-110.7" fill="#f6d04a"/>
<polygon points="82.0,-79.4 82.0,-64.6 69.3,-57.3 56.5,-64.6 56.5,-79.4 69.3,-86.7" fill="#1b2233"/>
<polygon points="95.9,-55.4 95.9,-40.6 83.1,-33.3 70.4,-40.6 70.4,-55.4 83.1,-62.7" fill="#1b2233"/>
<polygon points="109.7,-31.4 109.7,-16.6 97.0,-9.3 84.2,-16.6 84.2,-31.4 97.0,-38.7" fill="#1b2233"/>
<polygon points="123.6,-7.4 123.6,7.4 110.9,14.7 98.1,7.4 98.1,-7.4 110.9,-14.7" fill="#1b2233"/>
<polygon points="137.5,16.6 137.5,31.4 124.7,38.7 112.0,31.4 112.0,16.6 124.7,9.3" fill="#1b2233"/>
<polygon points="151.3,40.6 151.3,55.4 138.6,62.7 125.8,55.4 125.8,40.6 138.6,33.3" fill="#1b2233"/>
<polygon points="165.2,64.6 165.2,79.4 152.4,86.7 139.7,79.4 139.7,64.6 152.4,57.3" fill="#1b2233"/>
<polygon points="179.0,88.6 179.0,103.4 166.3,110.7 153.5,103.4 153.5,88.6 166.3,81.3" fill="#1b2233"/>
<polygon points="54.3,-175.4 54.3,-160.6 41.6,-153.3 28.8,-160.6 28.8,-175.4 41.6,-182.7" fill="#1b2233"/>
<polygon points="68.2,-151.4 68.2,-136.6 55.4,-129.3 42.7,-136.6 42.7,-151.4 55.4,-158.7" fill="#1b2233"/>
<polygon points="82.0,-127.4 82.0,-112.6 69.3,-105.3 56.5,-112.6 56.5,-127.4 69.3,-134.7" fill="#1b2233"/>
<polygon points="95.9,-103.4 95.9,-88.6 83.1,-81.3 70.4,-88.6 70.4,-103.4 83.1,-110.7" fill="#1b2233"/>
<polygon points="109.7,-79.4 109.7,-64.6 97.0,-57.3 84.2,-64.6 84.2,-79.4 97.0,-86.7" fill="#1b2233"/>
<polygon points="123.6,-55.4 123.6,-40.6 110.9,-33.3 98.1,-40.6 98.1,-55.4 110.9,-62.7" fill="#1b2233"/>
<polygon points="137.5,-31.4 137.5,-16.6 124.7,-9.3 112.0,-16.6 112.0,-31.4 124.7,-38.7" fill="#1b2233"/>
<polygon points="151.3,-7.4 151.3,7.4 138.6,14.7 125.8,7.4 125.8,-7.4 138.6,-14.7" fill="#1b2233"/>
<polygon points="165.2,16.6 165.2,31.4 152.4,38.7 139.7,31.4 139.7,16.6 152.4,9.3" fill="#1b2233"/>
<polygon points="179.0,40.6 179.0,55.4 166.3,62.7 153.5,55.4 153.5,40.6 166.3,33.3" fill="#1b2233"/>
<polygon points="192.9,64.6 192.9,79.4 180.1,86.7 167.4,79.4 167.4,64.6 180.1,57.3" fill="#1b2233"/>
<polygon points="206.7,88.6 206.7,103.4 194.0,110.7 181.2,103.4 181.2,88.6 194.0,81.3" fill="#1b2233"/>
<polygon points="82.0,-175.4 82.0,-160.6 69.3,-153.3 56.5,-160.6 56.5,-175.4 69.3,-182.7" fill="#1b2233"/>
<polygon points="95.9,-151.4 95.9,-136.6 83.1,-129.3 70.4,-136.6 70.4,-151.4 83.1,-158.7" fill="#1b2233"/>
<polygon points="109.7,-127.4 109.7,-112.6 97.0,-105.3 84.2,-112.6 84.2,-127.4 97.0,-134.7" fill="#1b2233"/>
<polygon points="123.6,-103.4 123.6,-88.6 110.9,-81.3 98.1,-88.6 98.1,-103.4 110.9,-110.7" fill="#f6d04a"/>
<polygon points="137.5,-79.4 137.5,-64.6 124.7,-57.3 112.0,-64.6 112.0,-79.4 124.7,-86.7" fill="#1b2233"/>
<polygon points="151.3,-55.4 151.3,-40.6 138.6,-33.3 125.8,-40.6 125.8,-55.4 138.6,-62.7" fill="#1b2233"/>
<polygon points="165.2,-31.4 165.2,-16.6 152.4,-9.3 139.7,-16.6 139.7,-31.4 152.4,-38.7" fill="#1b2233"/>
<polygon points="179.0,-7.4 179.0,7.4 166.3,14.7 153.5,7.4 153.5,-7.4 166.3,-14.7" fill="#1b2233"/>
<polygon points="192.9,16.6 192.9,31.4 180.1,38.7 167.4,31.4 167.4,16.6 180.1,9.3" fill="#1b2233"/>
<polygon points="206.7,40.6 206.7,55.4 194.0,62.7 181.2,55.4 181.2,40.6 194.0,33.3" fill="#1b2233"/>
<polygon points="109.7,-175.4 109.7,-160.6 97.0,-153.3 84.2,-160.6 84.2,-175.4 97.0,-182.7" fill="#1b2233"/>
<polygon points="123.6,-151.4 123.6,-136.6 110.9,-129.3 98.1,-136.6 98.1,-151.4 110.9,-158.7" fill="#1b2233"/>
<polygon points="137.5,-127.4 137.5,-112.6 124.7,-105.3 112.0,-112.6 112.0,-127.4 124.7,-134.7" fill="#1b2233"/>
<polygon points="151.3,-103.4 151.3,-88.6 138.6,-81.3 125.8,-88.6 125.8,-103.4 138.6,-110.7" fill="#1b2233"/>
<polygon points="165.2,-79.4 165.2,-64.6 152.4,-57.3 139.7,-64.6 139.7,-79.4 152.4,-86.7" fill="#1b2233"/>
<polygon points="179.0,-55.4 179.0,-40.6 166.3,-33.3 153.5,-40.6 153.5,-55.4 166.3,-62.7" fill="#1b2233"/>
<polygon points="192.9,-31.4 192.9,-16.6 180.1,-9.3 167.4,-16.6 167.4,-31.4 180.1,-38.7" fill="#1b2233"/>
<polygon points="206.7,-7.4 206.7,7.4 194.0,14.7 181.2,7.4 181.2,-7.4 194.0,-14.7" fill="#1b2233"/>
<polygon points="137.5,-175.4 137.5,-160.6 124.7,-153.3 112.0,-160.6 112.0,-175.4 124.7,-182.7" fill="#1b2233"/>
<polygon points="151.3,-151.4 151.3,-136.6 138.6,-129.3 125.8,-136.6 125.8,-151.4 138.6,-158.7" fill="#1b2233"/>
<polygon points="165.2,-127.4 165.2,-112.6 152.4,-105.3 139.7,-112.6 139.7,-127.4 152.4,-134.7" fill="#1b2233"/>
<polygon points="179.0,-103.4 179.0,-88.6 166.3,-81.3 153.5,-88.6 153.5,-103.4 166.3,-110.7" fill="#1b2233"/>
<polygon points="192.9,-79.4 192.9,-64.6 180.1,-57.3 167.4,-64.6 167.4,-79.4 180.1,-86.7" fill="#1b2233"/>
<polygon points="206.7,-55.4 206.7,-40.6 194.0,-33.3 181.2,-40.6 181.2,-55.4 194.0,-62.7" fill="#1b2233"/>
<polygon points="165.2,-175.4 165.2,-160.6 152.4,-153.3 139.7,-160.6 139.7,-175.4 152.4,-182.7" fill="#1b2233"/>
<polygon points="179.0,-151.4 179.0,-136.6 166.3,-129.3 153.5,-136.6 153.5,-151.4 166.3,-158.7" fill="#1b2233"/>
<polygon points="192.9,-127.4 192.9,-112.6 180.1,-105.3 167.4,-112.6 167.4,-127.4 180.1,-134.7" fill="#1b2233"/>
<polygon points="206.7,-103.4 206.7,-88.6 194.0,-81.3 181.2,-88.6 181.2,-103.4 194.0,-110.7" fill="#1b2233"/>
<polygon points="192.9,-175.4 192.9,-160.6 180.1,-153.3 167.4,-160.6 167.4,-175.4 180.1,-182.7" fill="#1b2233"/>
<polygon points="206.7,-151.4 206.7,-136.6 194.0,-129.3 181.2,-136.6 181.2,-151.4 194.0,-158.7" fill="#1b2233"/>
</svg>