<svg xmlns="http://www.w3.org/2000/svg" viewBox="-42 -42 111 131" width="111" height="131">
<rect x="-42" y="-42" width="111" height="131" fill="#0b0e15"/>
<polygon points="-15.0,40.6 -15.0,55.4 -27.7,62.7 -40.5,55.4 -40.5,40.6 -27.7,33.3" fill="#1b2233"/>
<polygon points="-1.1,64.6 -1.1,79.4 -13.9,86.7 -26.6,79.4 -26.6,64.6 -13.9,57.3" fill="#1b2233"/>
<polygon points="-15.0,-7.4 -15.0,7.4 -27.7,14.7 -40.5,7.4 -40.5,-7.4 -27.7,-14.7" fill="#1b2233"/>
<polygon points="-1.1,16.6 -1.1,31.4 -13.9,38.7 -26.6,31.4 -26.6,16.6 -13.9,9.3" fill="#1b2233"/>
<polygon points="12.7,40.6 12.7,55.4 0.0,62.7 -12.7,55.4 -12.7,40.6 -0.0,33.3" fill="#1b2233"/>
<polygon points="26.6,64.6 26.6,79.4 13.9,86.7 1.1,79.4 1.1,64.6 13.9,57.3" fill="#1b2233"/>
<polygon points="-1.1,-31.4 -1.1,-16.6 -13.9,-9.3 -26.6,-16.6 -26.6,-31.4 -13.9,-38.7" fill="#1b2233"/>
<polygon points="12.7,-7.4 12.7,7.4 0.0,14.7 -12.7,7.4 -12.7,-7.4 -0.0,-14.7" fill="#f6d04a"/>
<polygon points="26.6,16.6 26.6,31.4 13.9,38.7 1.1,31.4 1.1,16.6 13.9,9.3" fill="#f6d04a"/>
<polygon points="40.5,40.6 40.5,55.4 27.7,62.7 15.0,55.4 15.0,40.6 27.7,33.3" fill="#f6d04a"/>
<polygon points="54.3,64.6 54.3,79.4 41.6,86.7 28.8,79.4 28.8,64.6 41.6,57.3" fill="#1b2233"/>
<polygon points="26.6,-31.4 26.6,-16.6 13.9,-9.3 1.1,-16.6 1.1,-31.4 13.9,-38.7" fill="#1b2233"/>
<polygon points="40.5,-7.4 40.5,7.4 27.7,14.7 15.0,7.4 15.0,-7.4 27.7,-14.7" fill="#1b2233"/>
<polygon points="54.3,16.6 54.3,31.4 41.6,38.7 28.8,31.4 28.8,16.6 41.6,9.3" fill="#1b2233"/>
<polygon points="68.2,40.6 68.2,55.4 55.4,62.7 42.7,55.4 42.7,40.6 55.4,33.3" fill="#1b2233"/>
<polygon points="54.3,-31.4 54.3,-16.6 41.6,-9.3 28.8,-16.6 28.8,-31.4 41.6,-38.7" fill="#1b2233"/>
<polygon points="68.2,-7.4 68.2,7.4 55.4,14.7 42.7,7.4 42.7,-7.4 55.4,-14.7" fill="#1b2233"/>
</svg>